Coordinates
version=1
nRows=22
nColumns=24
inDegrees=yes

Units are S.I. units (second, meters, Newtons, ...)
Angles are in degrees.

endheader
time	pelvis_tilt	pelvis_list	pelvis_rotation	pelvis_tx	pelvis_ty	pelvis_tz	hip_flexion_r	hip_adduction_r	hip_rotation_r	knee_angle_r	ankle_angle_r	subtalar_angle_r	mtp_angle_r	hip_flexion_l	hip_adduction_l	hip_rotation_l	knee_angle_l	ankle_angle_l	subtalar_angle_l	mtp_angle_l	lumbar_extension	lumbar_bending	lumbar_rotation
      1.11216667	     -6.93183928	     -0.55147215	     -5.34421585	      0.00623008	      1.02372827	      0.29574531	     -8.11135113	      0.80902912	      1.14735720	    -15.73894851	     20.92619783	      4.97475514	      6.50795340	     34.17891127	     -3.85176838	     -2.66120050	     -5.11385138	     11.73571564	      5.36005224	      2.82645987	    -11.93684298	      2.11997881	      5.96761721
      1.11633333	     -6.96910400	     -0.51516533	     -5.49291509	      0.01236455	      1.02291024	      0.29552887	     -8.22942134	      0.67057864	      1.16680720	    -16.11385611	     20.74446878	      5.14805592	      6.64020603	     34.20519486	     -3.84197841	     -2.66130926	     -5.60956604	     11.50124413	      5.23577020	      2.85275282	    -11.84139436	      1.93826469	      5.97485623
      1.12050000	     -6.97440286	     -0.48192279	     -5.61702297	      0.01846964	      1.02214028	      0.29521795	     -8.34440491	      0.52114519	      1.06549222	    -16.56971369	     20.64191348	      5.44873869	      6.95694939	     34.21152434	     -3.81334843	     -2.62852706	     -6.15088048	     11.24148146	      5.04233624	      2.92221953	    -11.80052463	      1.77949156	      6.02074061
      1.12466667	     -6.97729642	     -0.45885613	     -5.73962889	      0.02459822	      1.02144370	      0.29494224	     -8.47942361	      0.39818700	      1.09871907	    -16.98247802	     20.36759301	      5.51422375	      7.00588227	     34.21915033	     -3.79946480	     -2.63323001	     -6.72511609	     10.96373598	      4.95215027	      2.92902100	    -11.78225668	      1.62896934	      5.99735869
      1.12883333	     -7.02767912	     -0.40563841	     -5.86170620	      0.03079224	      1.02070607	      0.29463323	     -8.52004092	      0.22949376	      1.00628501	    -17.47602159	     20.07864319	      5.73367670	     10.61334163	     34.24095715	     -3.75062301	     -2.54673366	     -7.23799747	     10.51221541	      4.61146366	      3.76108800	    -11.65473278	      1.42569866	      5.98869520
      1.13300000	     -7.02290238	     -0.34988612	     -5.97719104	      0.03700125	      1.02010925	      0.29433545	     -8.62234049	      0.06184939	      0.97739329	    -17.96762122	     19.77400817	      5.86362446	     10.63660527	     34.23898713	     -3.70524361	     -2.63426338	     -7.84277052	     10.15227016	      4.55168544	      3.75816252	    -11.60189301	      1.22604645	      5.97096130
      1.13716667	     -7.05433293	     -0.26724534	     -6.08155680	      0.04323381	      1.01948769	      0.29400636	     -8.65544268	     -0.13707161	      0.90068199	    -18.51678990	     19.50388717	      6.12410048	     10.72097615	     34.27717937	     -3.63012861	     -2.70218449	     -8.45880026	      9.72102313	      4.45607121	      3.76342292	    -11.51964904	      0.97093246	      5.95149064
      1.14133333	     -7.04962876	     -0.18840793	     -6.17837105	      0.04943115	      1.01898084	      0.29362099	     -8.69850757	     -0.34225888	      0.79150056	    -19.11252613	     19.18663228	      6.36223477	     12.53768861	     34.26365594	     -3.54212958	     -2.68000500	     -9.04868299	      9.21697542	      4.11207227	      4.01745022	    -11.48612397	      0.75369187	      5.90420916
      1.14550000	     -7.10823691	     -0.11597892	     -6.24623703	      0.05568374	      1.01839858	      0.29320561	     -8.66414269	     -0.52459093	      0.68290771	    -19.73722695	     18.81759095	      6.53137709	     12.64436218	     34.36849231	     -3.46835276	     -2.79379955	     -9.75114191	      8.79936806	      4.10904908	      4.02075090	    -11.35266256	      0.53287104	      5.86618583
      1.14966667	     -7.10913645	     -0.04313032	     -6.31117966	      0.06192968	      1.01799869	      0.29279165	     -8.68361766	     -0.70901127	      0.61050602	    -20.36272839	     18.35094832	      6.62549092	     12.70356619	     34.39932084	     -3.38761511	     -2.89038709	    -10.43205320	      8.33457790	      4.02556170	      4.01649778	    -11.29039056	      0.31125007	      5.81473420
      1.15383333	     -7.17169367	      0.06316682	     -6.36622967	      0.06817334	      1.01751068	      0.29231676	     -8.58063505	     -0.93652320	      0.45695551	    -21.10197509	     17.99840002	      6.89779456	     12.95294155	     34.51007970	     -3.27305775	     -2.96200133	    -11.14392013	      7.86714448	      3.87346198	      4.02223035	    -11.16179734	      0.04865043	      5.72510837
      1.15800000	     -7.16244597	      0.14479561	     -6.40454553	      0.07442237	      1.01724288	      0.29183537	     -8.56512441	     -1.13102208	      0.36754068	    -21.80549248	     17.43524174	      6.95892514	     13.03858894	     34.54439275	     -3.17343652	     -3.05239754	    -11.86110653	      7.42214001	      3.78398811	      4.01695985	    -11.12024684	     -0.17569439	      5.66508027
      1.16216667	     -7.22228656	      0.25267414	     -6.42573929	      0.08065205	      1.01688997	      0.29127514	     -8.42301142	     -1.35739098	      0.21364568	    -22.60027659	     16.86903306	      7.10470667	     17.39183929	     34.65405934	     -3.03603212	     -3.04301486	    -12.57600373	      6.93579499	      3.54248152	      4.10126501	    -11.00515634	     -0.43651874	      5.53500321
      1.16633333	     -7.24774454	      0.36725528	     -6.44522769	      0.08689922	      1.01664842	      0.29073229	     -8.29440284	     -1.59294975	      0.06189234	    -23.44394363	     16.33279977	      7.27060253	     17.45305566	     34.74946022	     -2.90532309	     -3.16467783	    -13.35053253	      6.56843823	      3.51165239	      4.08983551	    -10.91447863	     -0.71481207	      5.43276351
      1.17050000	     -7.25995664	      0.47767513	     -6.44508935	      0.09314140	      1.01650536	      0.29015317	     -8.16626183	     -1.81796200	     -0.06683273	    -24.30278038	     15.69398162	      7.37290312	     17.51546902	     34.82387840	     -2.76422320	     -3.23003995	    -14.11103827	      6.20326453	      3.44441791	      4.07671148	    -10.85447395	     -0.99489344	      5.33586197
      1.17466667	     -7.25623924	      0.61903872	     -6.42882407	      0.09934983	      1.01641743	      0.28948644	     -8.00042187	     -2.09536371	     -0.28388239	    -25.26107295	     15.09376978	      7.56132634	     19.57742212	     34.87232819	     -2.57099737	     -3.22872160	    -14.84743737	      5.84533189	      3.21084644	      3.84003597	    -10.80894646	     -1.27333462	      5.07693006
      1.17883333	     -7.30887354	      0.72239540	     -6.40041828	      0.10556392	      1.01629902	      0.28883767	     -7.76620521	     -2.30652593	     -0.42211711	    -26.23215224	     14.39607148	      7.63169676	     19.63569144	     35.00484228	     -2.42997906	     -3.28494794	    -15.64345245	      5.57398244	      3.22158269	      3.82584218	    -10.69511217	     -1.53939517	      5.03607867
      1.18300000	     -7.30797031	      0.85493620	     -6.35597252	      0.11174031	      1.01630923	      0.28811004	     -7.54571846	     -2.56908436	     -0.62716190	    -27.27337087	     13.70624402	      7.75236361	     21.38585902	     35.06474767	     -2.23548799	     -3.29447493	    -16.40292569	      5.32461155	      3.10348353	      3.51586350	    -10.65282224	     -1.80479395	      4.79536870
      1.18716667	     -7.33451045	      0.97144877	     -6.30445570	      0.11789759	      1.01632583	      0.28738637	     -7.27025462	     -2.80200620	     -0.79359146	    -28.35964670	     12.97696101	      7.81523279	     21.43686833	     35.15426279	     -2.06149245	     -3.31791654	    -17.16685837	      5.11738377	      3.08137562	      3.49904167	    -10.57701758	     -2.07467095	      4.74583976
      1.19133333	     -7.34554685	      1.10142759	     -6.23662727	      0.12403324	      1.01641134	      0.28662170	     -6.98144279	     -3.05332946	     -0.97605142	    -29.49366749	     12.23651068	      7.90790786	     21.54810457	     35.21360014	     -1.85803941	     -3.30798965	    -17.90108683	      4.93529232	      3.00974349	      3.46587774	    -10.52596486	     -2.35879413	      4.59459474
      1.19550000	     -7.34473156	      1.22773201	     -6.15092726	      0.13012966	      1.01655612	      0.28581928	     -6.67757506	     -3.30101766	     -1.16541263	    -30.67081937	     11.45907502	      7.99324761	     21.79673378	     35.24824919	     -1.64134211	     -3.25746432	    -18.60825739	      4.79308197	      2.90966002	      3.39133346	    -10.49314204	     -2.63547030	      4.40262672
      1.19966667	     -7.32550710	      1.37224622	     -6.06388791	      0.13619990	      1.01678560	      0.28501710	     -6.35824809	     -3.57012603	     -1.34960610	    -31.90078520	     10.66340426	      7.99274117	     21.93849892	     35.23676584	     -1.40526779	     -3.23263039	    -19.25403738	      4.64382846	      2.86914070	      3.34168047	    -10.47994957	     -2.92291410	      4.26141656
